<?xml version="1.0" encoding="UTF-8" standalone="no"?>
<!DOCTYPE svg PUBLIC "-//W3C//DTD SVG 1.1//EN"
 "http://www.w3.org/Graphics/SVG/1.1/DTD/svg11.dtd">
<!-- Generated by graphviz version 2.50.0 (0)
 -->
<!-- Title: Tree Pages: 1 -->
<svg width="981pt" height="433pt"
 viewBox="0.00 0.00 981.00 433.00" xmlns="http://www.w3.org/2000/svg" xmlns:xlink="http://www.w3.org/1999/xlink">
<g id="graph0" class="graph" transform="scale(1 1) rotate(0) translate(4 429)">
<title>Tree</title>
<polygon fill="white" stroke="transparent" points="-4,4 -4,-429 977,-429 977,4 -4,4"/>
<!-- 0 -->
<g id="node1" class="node">
<title>0</title>
<path fill="#e6843d" stroke="black" d="M686.5,-425C686.5,-425 533.5,-425 533.5,-425 527.5,-425 521.5,-419 521.5,-413 521.5,-413 521.5,-354 521.5,-354 521.5,-348 527.5,-342 533.5,-342 533.5,-342 686.5,-342 686.5,-342 692.5,-342 698.5,-348 698.5,-354 698.5,-354 698.5,-413 698.5,-413 698.5,-419 692.5,-425 686.5,-425"/>
<text text-anchor="start" x="532.5" y="-409.8" font-family="Helvetica,sans-Serif" font-size="14.00">Reservoirs_max ≤ 88.524</text>
<text text-anchor="start" x="574.5" y="-394.8" font-family="Helvetica,sans-Serif" font-size="14.00">gini = 0.042</text>
<text text-anchor="start" x="550" y="-379.8" font-family="Helvetica,sans-Serif" font-size="14.00">samples = 9696221</text>
<text text-anchor="start" x="529.5" y="-364.8" font-family="Helvetica,sans-Serif" font-size="14.00">value = [9490139, 206082]</text>
<text text-anchor="start" x="582.5" y="-349.8" font-family="Helvetica,sans-Serif" font-size="14.00">class = 0</text>
</g>
<!-- 1 -->
<g id="node2" class="node">
<title>1</title>
<path fill="#e6843d" stroke="black" d="M595.5,-306C595.5,-306 442.5,-306 442.5,-306 436.5,-306 430.5,-300 430.5,-294 430.5,-294 430.5,-235 430.5,-235 430.5,-229 436.5,-223 442.5,-223 442.5,-223 595.5,-223 595.5,-223 601.5,-223 607.5,-229 607.5,-235 607.5,-235 607.5,-294 607.5,-294 607.5,-300 601.5,-306 595.5,-306"/>
<text text-anchor="start" x="466.5" y="-290.8" font-family="Helvetica,sans-Serif" font-size="14.00">H1_max ≤ &#45;0.033</text>
<text text-anchor="start" x="487" y="-275.8" font-family="Helvetica,sans-Serif" font-size="14.00">gini = 0.04</text>
<text text-anchor="start" x="459" y="-260.8" font-family="Helvetica,sans-Serif" font-size="14.00">samples = 9688277</text>
<text text-anchor="start" x="438.5" y="-245.8" font-family="Helvetica,sans-Serif" font-size="14.00">value = [9489905, 198372]</text>
<text text-anchor="start" x="491.5" y="-230.8" font-family="Helvetica,sans-Serif" font-size="14.00">class = 0</text>
</g>
<!-- 0&#45;&gt;1 -->
<g id="edge1" class="edge">
<title>0&#45;&gt;1</title>
<path fill="none" stroke="black" d="M578.43,-341.91C571.44,-332.92 563.97,-323.32 556.76,-314.05"/>
<polygon fill="black" stroke="black" points="559.42,-311.77 550.52,-306.02 553.89,-316.06 559.42,-311.77"/>
<text text-anchor="middle" x="547.42" y="-327.13" font-family="Helvetica,sans-Serif" font-size="14.00">True</text>
</g>
<!-- 8 -->
<g id="node9" class="node">
<title>8</title>
<path fill="#3fa0e6" stroke="black" d="M819,-306C819,-306 711,-306 711,-306 705,-306 699,-300 699,-294 699,-294 699,-235 699,-235 699,-229 705,-223 711,-223 711,-223 819,-223 819,-223 825,-223 831,-229 831,-235 831,-235 831,-294 831,-294 831,-300 825,-306 819,-306"/>
<text text-anchor="start" x="724" y="-290.8" font-family="Helvetica,sans-Serif" font-size="14.00">Label ≤ 9.734</text>
<text text-anchor="start" x="729.5" y="-275.8" font-family="Helvetica,sans-Serif" font-size="14.00">gini = 0.057</text>
<text text-anchor="start" x="716.5" y="-260.8" font-family="Helvetica,sans-Serif" font-size="14.00">samples = 7944</text>
<text text-anchor="start" x="707" y="-245.8" font-family="Helvetica,sans-Serif" font-size="14.00">value = [234, 7710]</text>
<text text-anchor="start" x="737.5" y="-230.8" font-family="Helvetica,sans-Serif" font-size="14.00">class = 1</text>
</g>
<!-- 0&#45;&gt;8 -->
<g id="edge8" class="edge">
<title>0&#45;&gt;8</title>
<path fill="none" stroke="black" d="M663.78,-341.91C676.52,-332.29 690.21,-321.95 703.28,-312.09"/>
<polygon fill="black" stroke="black" points="705.45,-314.84 711.32,-306.02 701.23,-309.25 705.45,-314.84"/>
<text text-anchor="middle" x="707.86" y="-327.08" font-family="Helvetica,sans-Serif" font-size="14.00">False</text>
</g>
<!-- 2 -->
<g id="node3" class="node">
<title>2</title>
<path fill="#e78a48" stroke="black" d="M341,-187C341,-187 189,-187 189,-187 183,-187 177,-181 177,-175 177,-175 177,-116 177,-116 177,-110 183,-104 189,-104 189,-104 341,-104 341,-104 347,-104 353,-110 353,-116 353,-116 353,-175 353,-175 353,-181 347,-187 341,-187"/>
<text text-anchor="start" x="204.5" y="-171.8" font-family="Helvetica,sans-Serif" font-size="14.00">TP2_mean ≤ &#45;0.009</text>
<text text-anchor="start" x="233" y="-156.8" font-family="Helvetica,sans-Serif" font-size="14.00">gini = 0.13</text>
<text text-anchor="start" x="205" y="-141.8" font-family="Helvetica,sans-Serif" font-size="14.00">samples = 1685378</text>
<text text-anchor="start" x="185" y="-126.8" font-family="Helvetica,sans-Serif" font-size="14.00">value = [1567542, 117836]</text>
<text text-anchor="start" x="237.5" y="-111.8" font-family="Helvetica,sans-Serif" font-size="14.00">class = 0</text>
</g>
<!-- 1&#45;&gt;2 -->
<g id="edge2" class="edge">
<title>1&#45;&gt;2</title>
<path fill="none" stroke="black" d="M430.88,-222.91C408.71,-212.7 384.8,-201.68 362.22,-191.28"/>
<polygon fill="black" stroke="black" points="363.52,-188.03 352.97,-187.02 360.59,-194.38 363.52,-188.03"/>
</g>
<!-- 5 -->
<g id="node6" class="node">
<title>5</title>
<path fill="#e5823b" stroke="black" d="M592,-187C592,-187 446,-187 446,-187 440,-187 434,-181 434,-175 434,-175 434,-116 434,-116 434,-110 440,-104 446,-104 446,-104 592,-104 592,-104 598,-104 604,-110 604,-116 604,-116 604,-175 604,-175 604,-181 598,-187 592,-187"/>
<text text-anchor="start" x="467" y="-171.8" font-family="Helvetica,sans-Serif" font-size="14.00">TP3_min ≤ 1.143</text>
<text text-anchor="start" x="487" y="-156.8" font-family="Helvetica,sans-Serif" font-size="14.00">gini = 0.02</text>
<text text-anchor="start" x="459" y="-141.8" font-family="Helvetica,sans-Serif" font-size="14.00">samples = 8002899</text>
<text text-anchor="start" x="442" y="-126.8" font-family="Helvetica,sans-Serif" font-size="14.00">value = [7922363, 80536]</text>
<text text-anchor="start" x="491.5" y="-111.8" font-family="Helvetica,sans-Serif" font-size="14.00">class = 0</text>
</g>
<!-- 1&#45;&gt;5 -->
<g id="edge5" class="edge">
<title>1&#45;&gt;5</title>
<path fill="none" stroke="black" d="M519,-222.91C519,-214.65 519,-205.86 519,-197.3"/>
<polygon fill="black" stroke="black" points="522.5,-197.02 519,-187.02 515.5,-197.02 522.5,-197.02"/>
</g>
<!-- 3 -->
<g id="node4" class="node">
<title>3</title>
<path fill="#e9965a" stroke="black" d="M150,-68C150,-68 12,-68 12,-68 6,-68 0,-62 0,-56 0,-56 0,-12 0,-12 0,-6 6,0 12,0 12,0 150,0 150,0 156,0 162,-6 162,-12 162,-12 162,-56 162,-56 162,-62 156,-68 150,-68"/>
<text text-anchor="start" x="45.5" y="-52.8" font-family="Helvetica,sans-Serif" font-size="14.00">gini = 0.245</text>
<text text-anchor="start" x="25" y="-37.8" font-family="Helvetica,sans-Serif" font-size="14.00">samples = 382999</text>
<text text-anchor="start" x="8" y="-22.8" font-family="Helvetica,sans-Serif" font-size="14.00">value = [328266, 54733]</text>
<text text-anchor="start" x="53.5" y="-7.8" font-family="Helvetica,sans-Serif" font-size="14.00">class = 0</text>
</g>
<!-- 2&#45;&gt;3 -->
<g id="edge3" class="edge">
<title>2&#45;&gt;3</title>
<path fill="none" stroke="black" d="M196.75,-103.88C180.01,-93.92 162.14,-83.29 145.58,-73.43"/>
<polygon fill="black" stroke="black" points="146.91,-70.15 136.52,-68.04 143.33,-76.17 146.91,-70.15"/>
</g>
<!-- 4 -->
<g id="node5" class="node">
<title>4</title>
<path fill="#e68743" stroke="black" d="M338,-68C338,-68 192,-68 192,-68 186,-68 180,-62 180,-56 180,-56 180,-12 180,-12 180,-6 186,0 192,0 192,0 338,0 338,0 344,0 350,-6 350,-12 350,-12 350,-56 350,-56 350,-62 344,-68 338,-68"/>
<text text-anchor="start" x="229.5" y="-52.8" font-family="Helvetica,sans-Serif" font-size="14.00">gini = 0.092</text>
<text text-anchor="start" x="205" y="-37.8" font-family="Helvetica,sans-Serif" font-size="14.00">samples = 1302379</text>
<text text-anchor="start" x="188" y="-22.8" font-family="Helvetica,sans-Serif" font-size="14.00">value = [1239276, 63103]</text>
<text text-anchor="start" x="237.5" y="-7.8" font-family="Helvetica,sans-Serif" font-size="14.00">class = 0</text>
</g>
<!-- 2&#45;&gt;4 -->
<g id="edge4" class="edge">
<title>2&#45;&gt;4</title>
<path fill="none" stroke="black" d="M265,-103.73C265,-95.52 265,-86.86 265,-78.56"/>
<polygon fill="black" stroke="black" points="268.5,-78.3 265,-68.3 261.5,-78.3 268.5,-78.3"/>
</g>
<!-- 6 -->
<g id="node7" class="node">
<title>6</title>
<path fill="#46a4e7" stroke="black" d="M488,-68C488,-68 380,-68 380,-68 374,-68 368,-62 368,-56 368,-56 368,-12 368,-12 368,-6 374,0 380,0 380,0 488,0 488,0 494,0 500,-6 500,-12 500,-12 500,-56 500,-56 500,-62 494,-68 488,-68"/>
<text text-anchor="start" x="399" y="-52.8" font-family="Helvetica,sans-Serif" font-size="14.00">gini = 0.117</text>
<text text-anchor="start" x="385.5" y="-37.8" font-family="Helvetica,sans-Serif" font-size="14.00">samples = 4146</text>
<text text-anchor="start" x="376" y="-22.8" font-family="Helvetica,sans-Serif" font-size="14.00">value = [259, 3887]</text>
<text text-anchor="start" x="406.5" y="-7.8" font-family="Helvetica,sans-Serif" font-size="14.00">class = 1</text>
</g>
<!-- 5&#45;&gt;6 -->
<g id="edge6" class="edge">
<title>5&#45;&gt;6</title>
<path fill="none" stroke="black" d="M487.35,-103.73C480.41,-94.79 473.06,-85.32 466.1,-76.36"/>
<polygon fill="black" stroke="black" points="468.75,-74.05 459.85,-68.3 463.22,-78.35 468.75,-74.05"/>
</g>
<!-- 7 -->
<g id="node8" class="node">
<title>7</title>
<path fill="#e5823b" stroke="black" d="M676,-68C676,-68 530,-68 530,-68 524,-68 518,-62 518,-56 518,-56 518,-12 518,-12 518,-6 524,0 530,0 530,0 676,0 676,0 682,0 688,-6 688,-12 688,-12 688,-56 688,-56 688,-62 682,-68 676,-68"/>
<text text-anchor="start" x="567.5" y="-52.8" font-family="Helvetica,sans-Serif" font-size="14.00">gini = 0.019</text>
<text text-anchor="start" x="543" y="-37.8" font-family="Helvetica,sans-Serif" font-size="14.00">samples = 7998753</text>
<text text-anchor="start" x="526" y="-22.8" font-family="Helvetica,sans-Serif" font-size="14.00">value = [7922104, 76649]</text>
<text text-anchor="start" x="575.5" y="-7.8" font-family="Helvetica,sans-Serif" font-size="14.00">class = 0</text>
</g>
<!-- 5&#45;&gt;7 -->
<g id="edge7" class="edge">
<title>5&#45;&gt;7</title>
<path fill="none" stroke="black" d="M550.28,-103.73C557.14,-94.79 564.4,-85.32 571.28,-76.36"/>
<polygon fill="black" stroke="black" points="574.15,-78.36 577.46,-68.3 568.59,-74.1 574.15,-78.36"/>
</g>
<!-- 9 -->
<g id="node10" class="node">
<title>9</title>
<path fill="#399de5" stroke="black" d="M832.5,-187C832.5,-187 697.5,-187 697.5,-187 691.5,-187 685.5,-181 685.5,-175 685.5,-175 685.5,-116 685.5,-116 685.5,-110 691.5,-104 697.5,-104 697.5,-104 832.5,-104 832.5,-104 838.5,-104 844.5,-110 844.5,-116 844.5,-116 844.5,-175 844.5,-175 844.5,-181 838.5,-187 832.5,-187"/>
<text text-anchor="start" x="693.5" y="-171.8" font-family="Helvetica,sans-Serif" font-size="14.00">Flowmeter_min ≤ 31.71</text>
<text text-anchor="start" x="729.5" y="-156.8" font-family="Helvetica,sans-Serif" font-size="14.00">gini = 0.002</text>
<text text-anchor="start" x="716.5" y="-141.8" font-family="Helvetica,sans-Serif" font-size="14.00">samples = 7716</text>
<text text-anchor="start" x="714.5" y="-126.8" font-family="Helvetica,sans-Serif" font-size="14.00">value = [6, 7710]</text>
<text text-anchor="start" x="737.5" y="-111.8" font-family="Helvetica,sans-Serif" font-size="14.00">class = 1</text>
</g>
<!-- 8&#45;&gt;9 -->
<g id="edge9" class="edge">
<title>8&#45;&gt;9</title>
<path fill="none" stroke="black" d="M765,-222.91C765,-214.65 765,-205.86 765,-197.3"/>
<polygon fill="black" stroke="black" points="768.5,-197.02 765,-187.02 761.5,-197.02 768.5,-197.02"/>
</g>
<!-- 12 -->
<g id="node13" class="node">
<title>12</title>
<path fill="#e58139" stroke="black" d="M961,-179.5C961,-179.5 875,-179.5 875,-179.5 869,-179.5 863,-173.5 863,-167.5 863,-167.5 863,-123.5 863,-123.5 863,-117.5 869,-111.5 875,-111.5 875,-111.5 961,-111.5 961,-111.5 967,-111.5 973,-117.5 973,-123.5 973,-123.5 973,-167.5 973,-167.5 973,-173.5 967,-179.5 961,-179.5"/>
<text text-anchor="start" x="890" y="-164.3" font-family="Helvetica,sans-Serif" font-size="14.00">gini = 0.0</text>
<text text-anchor="start" x="873" y="-149.3" font-family="Helvetica,sans-Serif" font-size="14.00">samples = 228</text>
<text text-anchor="start" x="871" y="-134.3" font-family="Helvetica,sans-Serif" font-size="14.00">value = [228, 0]</text>
<text text-anchor="start" x="890.5" y="-119.3" font-family="Helvetica,sans-Serif" font-size="14.00">class = 0</text>
</g>
<!-- 8&#45;&gt;12 -->
<g id="edge12" class="edge">
<title>8&#45;&gt;12</title>
<path fill="none" stroke="black" d="M818.08,-222.91C833.81,-210.88 851,-197.73 866.62,-185.79"/>
<polygon fill="black" stroke="black" points="868.81,-188.52 874.63,-179.67 864.56,-182.96 868.81,-188.52"/>
</g>
<!-- 10 -->
<g id="node11" class="node">
<title>10</title>
<path fill="#399de5" stroke="black" d="M811.5,-68C811.5,-68 718.5,-68 718.5,-68 712.5,-68 706.5,-62 706.5,-56 706.5,-56 706.5,-12 706.5,-12 706.5,-6 712.5,0 718.5,0 718.5,0 811.5,0 811.5,0 817.5,0 823.5,-6 823.5,-12 823.5,-12 823.5,-56 823.5,-56 823.5,-62 817.5,-68 811.5,-68"/>
<text text-anchor="start" x="737" y="-52.8" font-family="Helvetica,sans-Serif" font-size="14.00">gini = 0.0</text>
<text text-anchor="start" x="716.5" y="-37.8" font-family="Helvetica,sans-Serif" font-size="14.00">samples = 7710</text>
<text text-anchor="start" x="714.5" y="-22.8" font-family="Helvetica,sans-Serif" font-size="14.00">value = [0, 7710]</text>
<text text-anchor="start" x="737.5" y="-7.8" font-family="Helvetica,sans-Serif" font-size="14.00">class = 1</text>
</g>
<!-- 9&#45;&gt;10 -->
<g id="edge10" class="edge">
<title>9&#45;&gt;10</title>
<path fill="none" stroke="black" d="M765,-103.73C765,-95.52 765,-86.86 765,-78.56"/>
<polygon fill="black" stroke="black" points="768.5,-78.3 765,-68.3 761.5,-78.3 768.5,-78.3"/>
</g>
<!-- 11 -->
<g id="node12" class="node">
<title>11</title>
<path fill="#e58139" stroke="black" d="M924.5,-68C924.5,-68 853.5,-68 853.5,-68 847.5,-68 841.5,-62 841.5,-56 841.5,-56 841.5,-12 841.5,-12 841.5,-6 847.5,0 853.5,0 853.5,0 924.5,0 924.5,0 930.5,0 936.5,-6 936.5,-12 936.5,-12 936.5,-56 936.5,-56 936.5,-62 930.5,-68 924.5,-68"/>
<text text-anchor="start" x="861" y="-52.8" font-family="Helvetica,sans-Serif" font-size="14.00">gini = 0.0</text>
<text text-anchor="start" x="851.5" y="-37.8" font-family="Helvetica,sans-Serif" font-size="14.00">samples = 6</text>
<text text-anchor="start" x="849.5" y="-22.8" font-family="Helvetica,sans-Serif" font-size="14.00">value = [6, 0]</text>
<text text-anchor="start" x="861.5" y="-7.8" font-family="Helvetica,sans-Serif" font-size="14.00">class = 0</text>
</g>
<!-- 9&#45;&gt;11 -->
<g id="edge11" class="edge">
<title>9&#45;&gt;11</title>
<path fill="none" stroke="black" d="M811.17,-103.73C821.81,-94.33 833.12,-84.35 843.72,-74.99"/>
<polygon fill="black" stroke="black" points="846.11,-77.54 851.29,-68.3 841.48,-72.3 846.11,-77.54"/>
</g>
</g>
</svg>
